<?xml version="1.0" encoding="UTF-8" standalone="no"?>
<svg
   xmlns:dc="http://purl.org/dc/elements/1.1/"
   xmlns:cc="http://creativecommons.org/ns#"
   xmlns:rdf="http://www.w3.org/1999/02/22-rdf-syntax-ns#"
   xmlns:svg="http://www.w3.org/2000/svg"
   xmlns="http://www.w3.org/2000/svg"
   id="svg847"
   version="1.1"
   viewBox="0 0 79.86175 13.995084"
   height="52.894802"
   width="301.83969">
  <defs
     id="defs841" />
  <metadata
     id="metadata844">
    <rdf:RDF>
      <cc:Work
         rdf:about="">
        <dc:format>image/svg+xml</dc:format>
        <dc:type
           rdf:resource="http://purl.org/dc/dcmitype/StillImage" />
        <dc:title></dc:title>
      </cc:Work>
    </rdf:RDF>
  </metadata>
  <g
     transform="translate(-50.163346,-115.26118)"
     id="layer1">
    <g
       id="text1394"
       style="font-style:normal;font-variant:normal;font-weight:bold;font-stretch:normal;font-size:10.58333302px;line-height:125%;font-family:Overpass;-inkscape-font-specification:'Overpass, Bold';font-variant-ligatures:normal;font-variant-caps:normal;font-variant-numeric:normal;font-feature-settings:normal;text-align:start;letter-spacing:0px;word-spacing:0px;writing-mode:lr-tb;text-anchor:start;fill:#ffffff;fill-opacity:1;stroke:none;stroke-width:0.26458332px;stroke-linecap:butt;stroke-linejoin:miter;stroke-opacity:1"
       aria-label="Flight Historian">
      <path
         id="path1396"
         style="font-style:normal;font-variant:normal;font-weight:bold;font-stretch:normal;font-size:10.58333302px;font-family:Overpass;-inkscape-font-specification:'Overpass, Bold';font-variant-ligatures:normal;font-variant-caps:normal;font-variant-numeric:normal;font-feature-settings:normal;text-align:start;writing-mode:lr-tb;text-anchor:start;fill:#ffffff;stroke-width:0.26458332px"
         d="m 52.280013,125.02083 v -7.4104 h 4.966105 v 1.35909 H 53.71145 v 1.55546 h 2.242757 v 1.35392 H 53.71145 v 3.14193 z" />
      <path
         id="path1398"
         style="font-style:normal;font-variant:normal;font-weight:bold;font-stretch:normal;font-size:10.58333302px;font-family:Overpass;-inkscape-font-specification:'Overpass, Bold';font-variant-ligatures:normal;font-variant-caps:normal;font-variant-numeric:normal;font-feature-settings:normal;text-align:start;writing-mode:lr-tb;text-anchor:start;fill:#ffffff;stroke-width:0.26458332px"
         d="m 58.460514,125.02083 v -6.99699 l 1.374593,-0.64596 v 7.64295 z" />
      <path
         id="path1400"
         style="font-style:normal;font-variant:normal;font-weight:bold;font-stretch:normal;font-size:10.58333302px;font-family:Overpass;-inkscape-font-specification:'Overpass, Bold';font-variant-ligatures:normal;font-variant-caps:normal;font-variant-numeric:normal;font-feature-settings:normal;text-align:start;writing-mode:lr-tb;text-anchor:start;fill:#ffffff;stroke-width:0.26458332px"
         d="m 61.499088,125.02083 v -5.41052 h 1.374593 v 5.41052 z m 0.687297,-6.04098 q -0.165365,0 -0.315226,-0.062 -0.144694,-0.0672 -0.253215,-0.1757 -0.10852,-0.10852 -0.1757,-0.25321 -0.06201,-0.14986 -0.06201,-0.31523 0,-0.16536 0.06201,-0.31006 0.06718,-0.14469 0.1757,-0.25321 0.108521,-0.10852 0.253215,-0.17053 0.149861,-0.062 0.315226,-0.062 0.165364,0 0.310058,0.062 0.149862,0.062 0.258383,0.17053 0.10852,0.10852 0.170532,0.25321 0.06201,0.1447 0.06201,0.31006 0,0.16537 -0.06201,0.31523 -0.06201,0.14469 -0.170532,0.25321 -0.108521,0.10852 -0.258383,0.1757 -0.144694,0.062 -0.310058,0.062 z" />
      <path
         id="path1402"
         style="font-style:normal;font-variant:normal;font-weight:bold;font-stretch:normal;font-size:10.58333302px;font-family:Overpass;-inkscape-font-specification:'Overpass, Bold';font-variant-ligatures:normal;font-variant-caps:normal;font-variant-numeric:normal;font-feature-settings:normal;text-align:start;writing-mode:lr-tb;text-anchor:start;fill:#ffffff;stroke-width:0.26458332px"
         d="m 65.679711,125.99235 q 0.542602,-0.0362 0.914673,-0.10336 0.37207,-0.0672 0.599446,-0.19637 0.227377,-0.12919 0.325562,-0.32556 0.09819,-0.19637 0.09819,-0.48576 v -0.14469 q -0.242879,0.23771 -0.54777,0.32556 -0.299723,0.0879 -0.61495,0.0879 -0.490926,0 -0.899169,-0.1757 -0.408244,-0.18087 -0.707968,-0.53744 -0.299723,-0.35656 -0.465087,-0.88366 -0.165365,-0.53227 -0.165365,-1.24024 0,-0.66146 0.160197,-1.18339 0.165364,-0.5271 0.45992,-0.88883 0.299723,-0.3669 0.713135,-0.55811 0.413411,-0.19637 0.914673,-0.19637 0.72347,0 1.152384,0.41341 v -0.28938 h 1.374593 v 4.73356 q 0,0.30489 -0.03101,0.60978 -0.02584,0.29972 -0.09302,0.56844 -0.06201,0.26872 -0.165365,0.49609 -0.103353,0.22738 -0.258382,0.38758 -0.206706,0.2067 -0.444417,0.33589 -0.237712,0.13436 -0.496094,0.21704 -0.253215,0.0827 -0.5271,0.11886 -0.268717,0.0413 -0.537435,0.062 z m 0.997355,-2.16525 q 0.335897,0 0.558106,-0.11369 0.222208,-0.11368 0.382405,-0.32039 v -2.1394 q -0.06201,-0.0775 -0.144694,-0.15503 -0.08268,-0.0827 -0.201538,-0.1447 -0.113688,-0.0672 -0.26355,-0.10335 -0.144694,-0.0413 -0.330729,-0.0413 -0.521932,0 -0.800985,0.38757 -0.279052,0.38758 -0.279052,1.11621 0,0.33073 0.06201,0.60979 0.06718,0.27388 0.201538,0.47542 0.134359,0.20154 0.335897,0.31522 0.206706,0.11369 0.480591,0.11369 z" />
      <path
         id="path1404"
         style="font-style:normal;font-variant:normal;font-weight:bold;font-stretch:normal;font-size:10.58333302px;font-family:Overpass;-inkscape-font-specification:'Overpass, Bold';font-variant-ligatures:normal;font-variant-caps:normal;font-variant-numeric:normal;font-feature-settings:normal;text-align:start;writing-mode:lr-tb;text-anchor:start;fill:#ffffff;stroke-width:0.26458332px"
         d="m 73.927269,125.02083 v -3.17293 q 0,-0.27389 -0.07235,-0.47026 -0.07235,-0.19637 -0.201538,-0.32039 -0.129191,-0.1292 -0.299724,-0.18604 -0.170532,-0.062 -0.37207,-0.062 -0.211873,0 -0.397908,0.0568 -0.186035,0.0517 -0.325562,0.1757 -0.139526,0.11886 -0.222209,0.31523 -0.07751,0.1912 -0.07751,0.47025 v 3.19361 h -1.374593 v -7.00733 l 1.374593,-0.63562 v 2.74402 q 0.248047,-0.30489 0.609782,-0.47025 0.366902,-0.16537 0.837158,-0.16537 0.346232,0 0.687296,0.10336 0.341065,0.10335 0.609782,0.3514 0.268718,0.24804 0.434082,0.65629 0.165365,0.40824 0.165365,1.01802 v 3.40548 z" />
      <path
         id="path1406"
         style="font-style:normal;font-variant:normal;font-weight:bold;font-stretch:normal;font-size:10.58333302px;font-family:Overpass;-inkscape-font-specification:'Overpass, Bold';font-variant-ligatures:normal;font-variant-caps:normal;font-variant-numeric:normal;font-feature-settings:normal;text-align:start;writing-mode:lr-tb;text-anchor:start;fill:#ffffff;stroke-width:0.26458332px"
         d="m 78.454124,125.15002 q -0.351399,0 -0.599446,-0.0982 -0.248047,-0.0982 -0.408244,-0.27905 -0.155029,-0.18603 -0.232544,-0.44958 -0.07235,-0.26872 -0.07235,-0.60462 v -2.89905 h -0.775146 v -1.20922 h 0.775146 v -1.57614 l 1.374593,-0.65629 v 2.23243 h 1.209229 v 1.20922 h -1.209229 v 2.69751 q 0,0.20671 0.09819,0.31523 0.103353,0.10852 0.284221,0.10852 0.206705,0 0.428914,-0.0568 0.222209,-0.062 0.45992,-0.1757 l -0.160197,1.19372 q -0.237711,0.11886 -0.537435,0.18087 -0.299723,0.0672 -0.63562,0.0672 z" />
      <path
         id="path1408"
         style="font-style:normal;font-variant:normal;font-weight:bold;font-stretch:normal;font-size:10.58333302px;font-family:Overpass;-inkscape-font-specification:'Overpass, Bold';font-variant-ligatures:normal;font-variant-caps:normal;font-variant-numeric:normal;font-feature-settings:normal;text-align:start;writing-mode:lr-tb;text-anchor:start;fill:#ffffff;stroke-width:0.26458332px"
         d="m 88.127954,125.02083 v -3.13159 h -3.100586 v 3.13159 h -1.431437 v -7.4104 h 1.431437 v 2.92488 h 3.100586 v -2.92488 h 1.426269 v 7.4104 z" />
      <path
         id="path1410"
         style="font-style:normal;font-variant:normal;font-weight:bold;font-stretch:normal;font-size:10.58333302px;font-family:Overpass;-inkscape-font-specification:'Overpass, Bold';font-variant-ligatures:normal;font-variant-caps:normal;font-variant-numeric:normal;font-feature-settings:normal;text-align:start;writing-mode:lr-tb;text-anchor:start;fill:#ffffff;stroke-width:0.26458332px"
         d="m 91.326725,125.02083 v -5.41052 h 1.374593 v 5.41052 z m 0.687297,-6.04098 q -0.165365,0 -0.315227,-0.062 -0.144694,-0.0672 -0.253214,-0.1757 -0.108521,-0.10852 -0.1757,-0.25321 -0.06201,-0.14986 -0.06201,-0.31523 0,-0.16536 0.06201,-0.31006 0.06718,-0.14469 0.1757,-0.25321 0.10852,-0.10852 0.253214,-0.17053 0.149862,-0.062 0.315227,-0.062 0.165364,0 0.310058,0.062 0.149862,0.062 0.258382,0.17053 0.108521,0.10852 0.170532,0.25321 0.06201,0.1447 0.06201,0.31006 0,0.16537 -0.06201,0.31523 -0.06201,0.14469 -0.170532,0.25321 -0.10852,0.10852 -0.258382,0.1757 -0.144694,0.062 -0.310058,0.062 z" />
      <path
         id="path1412"
         style="font-style:normal;font-variant:normal;font-weight:bold;font-stretch:normal;font-size:10.58333302px;font-family:Overpass;-inkscape-font-specification:'Overpass, Bold';font-variant-ligatures:normal;font-variant-caps:normal;font-variant-numeric:normal;font-feature-settings:normal;text-align:start;writing-mode:lr-tb;text-anchor:start;fill:#ffffff;stroke-width:0.26458332px"
         d="m 97.124818,121.10375 q -0.07752,-0.0775 -0.180867,-0.16019 -0.09819,-0.0827 -0.227377,-0.1447 -0.129191,-0.0672 -0.294555,-0.10852 -0.160197,-0.0413 -0.3514,-0.0413 -0.310059,0 -0.501262,0.10336 -0.191202,0.10335 -0.191202,0.29972 0,0.10852 0.08785,0.20154 0.08785,0.093 0.232544,0.17053 0.149861,0.0775 0.341064,0.14986 0.191203,0.0672 0.397909,0.13436 0.346232,0.11369 0.666625,0.25838 0.325562,0.1447 0.568441,0.3514 0.248047,0.20671 0.392741,0.49609 0.149862,0.28939 0.149862,0.69247 0,0.39791 -0.149862,0.7028 -0.149862,0.30489 -0.428914,0.51676 -0.273885,0.20671 -0.666626,0.31523 -0.387573,0.10852 -0.868164,0.10852 -0.330729,0 -0.651123,-0.0724 -0.315227,-0.0672 -0.599447,-0.1912 -0.28422,-0.12919 -0.516764,-0.31006 -0.232544,-0.18087 -0.392741,-0.40308 l 0.909505,-0.76997 q 0.08785,0.0827 0.211873,0.18603 0.129192,0.0982 0.289388,0.18604 0.165365,0.0879 0.356568,0.14986 0.19637,0.0568 0.413411,0.0568 0.356568,0 0.583944,-0.10335 0.232544,-0.10852 0.232544,-0.37207 0,-0.12919 -0.08268,-0.23255 -0.07751,-0.10335 -0.227377,-0.1912 -0.149861,-0.093 -0.366902,-0.18087 -0.217041,-0.0879 -0.490926,-0.18603 -0.382406,-0.13953 -0.692465,-0.28939 -0.310058,-0.14986 -0.527099,-0.34106 -0.217041,-0.19637 -0.335897,-0.45476 -0.113688,-0.25838 -0.113688,-0.62011 0,-0.37207 0.155029,-0.65629 0.155029,-0.28422 0.418579,-0.47543 0.268718,-0.19637 0.625285,-0.29455 0.361735,-0.0982 0.769979,-0.0982 0.346232,0 0.645955,0.0724 0.299724,0.0724 0.542603,0.1912 0.248047,0.11886 0.444417,0.27906 0.196371,0.15502 0.346232,0.32556 z" />
      <path
         id="path1414"
         style="font-style:normal;font-variant:normal;font-weight:bold;font-stretch:normal;font-size:10.58333302px;font-family:Overpass;-inkscape-font-specification:'Overpass, Bold';font-variant-ligatures:normal;font-variant-caps:normal;font-variant-numeric:normal;font-feature-settings:normal;text-align:start;writing-mode:lr-tb;text-anchor:start;fill:#ffffff;stroke-width:0.26458332px"
         d="m 101.15041,125.15002 q -0.3514,0 -0.59944,-0.0982 -0.24805,-0.0982 -0.40825,-0.27905 -0.155026,-0.18603 -0.232541,-0.44958 -0.07235,-0.26872 -0.07235,-0.60462 v -2.89905 h -0.775146 v -1.20922 h 0.775146 v -1.57614 l 1.374601,-0.65629 v 2.23243 h 1.20922 v 1.20922 h -1.20922 v 2.69751 q 0,0.20671 0.0982,0.31523 0.10335,0.10852 0.28422,0.10852 0.20671,0 0.42892,-0.0568 0.2222,-0.062 0.45992,-0.1757 l -0.1602,1.19372 q -0.23771,0.11886 -0.53744,0.18087 -0.29972,0.0672 -0.63562,0.0672 z" />
      <path
         id="path1416"
         style="font-style:normal;font-variant:normal;font-weight:bold;font-stretch:normal;font-size:10.58333302px;font-family:Overpass;-inkscape-font-specification:'Overpass, Bold';font-variant-ligatures:normal;font-variant-caps:normal;font-variant-numeric:normal;font-feature-settings:normal;text-align:start;writing-mode:lr-tb;text-anchor:start;fill:#ffffff;stroke-width:0.26458332px"
         d="m 105.92015,125.15002 q -0.57361,0 -1.03353,-0.1912 -0.45992,-0.19637 -0.78548,-0.55811 -0.3204,-0.3669 -0.4961,-0.88883 -0.1757,-0.5271 -0.1757,-1.18856 0,-0.66146 0.1757,-1.18856 0.1757,-0.5271 0.4961,-0.894 0.32556,-0.3669 0.78548,-0.55811 0.45992,-0.19637 1.03353,-0.19637 0.57361,0 1.03353,0.19637 0.45992,0.19121 0.78031,0.55811 0.32556,0.3669 0.49609,0.894 0.1757,0.5271 0.1757,1.18856 0,0.66146 -0.1757,1.18856 -0.17053,0.52193 -0.49609,0.88883 -0.32039,0.36174 -0.78031,0.55811 -0.45992,0.1912 -1.03353,0.1912 z m 0,-1.32292 q 0.25838,0 0.46509,-0.10335 0.2067,-0.10335 0.34623,-0.29456 0.14469,-0.19637 0.22221,-0.47542 0.0775,-0.27905 0.0775,-0.63045 0,-0.35657 -0.0775,-0.63562 -0.0775,-0.27905 -0.22221,-0.47542 -0.13953,-0.19638 -0.34623,-0.29973 -0.20671,-0.10335 -0.46509,-0.10335 -0.25838,0 -0.46509,0.10335 -0.20671,0.10335 -0.3514,0.29973 -0.13953,0.19637 -0.21704,0.47542 -0.0775,0.27905 -0.0775,0.63562 0,0.3514 0.0775,0.63045 0.0775,0.27905 0.21704,0.47542 0.14469,0.19121 0.3514,0.29456 0.20671,0.10335 0.46509,0.10335 z" />
      <path
         id="path1418"
         style="font-style:normal;font-variant:normal;font-weight:bold;font-stretch:normal;font-size:10.58333302px;font-family:Overpass;-inkscape-font-specification:'Overpass, Bold';font-variant-ligatures:normal;font-variant-caps:normal;font-variant-numeric:normal;font-feature-settings:normal;text-align:start;writing-mode:lr-tb;text-anchor:start;fill:#ffffff;stroke-width:0.26458332px"
         d="m 109.73387,125.02083 v -5.41052 h 1.37459 v 0.48059 q 0.11369,-0.25839 0.35657,-0.42892 0.24805,-0.1757 0.64596,-0.1757 0.33589,0 0.59944,0.10852 0.26872,0.10852 0.50126,0.30489 l -0.18603,1.25574 q -0.19637,-0.13436 -0.43408,-0.22221 -0.23255,-0.093 -0.55294,-0.093 -0.18087,0 -0.3514,0.0517 -0.16537,0.0517 -0.29456,0.18087 -0.12919,0.12919 -0.2067,0.35657 -0.0775,0.22737 -0.0775,0.5736 v 3.01791 z" />
      <path
         id="path1420"
         style="font-style:normal;font-variant:normal;font-weight:bold;font-stretch:normal;font-size:10.58333302px;font-family:Overpass;-inkscape-font-specification:'Overpass, Bold';font-variant-ligatures:normal;font-variant-caps:normal;font-variant-numeric:normal;font-feature-settings:normal;text-align:start;writing-mode:lr-tb;text-anchor:start;fill:#ffffff;stroke-width:0.26458332px"
         d="m 114.29173,125.02083 v -5.41052 h 1.37459 v 5.41052 z m 0.6873,-6.04098 q -0.16537,0 -0.31523,-0.062 -0.14469,-0.0672 -0.25322,-0.1757 -0.10852,-0.10852 -0.1757,-0.25321 -0.062,-0.14986 -0.062,-0.31523 0,-0.16536 0.062,-0.31006 0.0672,-0.14469 0.1757,-0.25321 0.10853,-0.10852 0.25322,-0.17053 0.14986,-0.062 0.31523,-0.062 0.16536,0 0.31005,0.062 0.14987,0.062 0.25839,0.17053 0.10852,0.10852 0.17053,0.25321 0.062,0.1447 0.062,0.31006 0,0.16537 -0.062,0.31523 -0.062,0.14469 -0.17053,0.25321 -0.10852,0.10852 -0.25839,0.1757 -0.14469,0.062 -0.31005,0.062 z" />
      <path
         id="path1422"
         style="font-style:normal;font-variant:normal;font-weight:bold;font-stretch:normal;font-size:10.58333302px;font-family:Overpass;-inkscape-font-specification:'Overpass, Bold';font-variant-ligatures:normal;font-variant-caps:normal;font-variant-numeric:normal;font-feature-settings:normal;text-align:start;writing-mode:lr-tb;text-anchor:start;fill:#ffffff;stroke-width:0.26458332px"
         d="m 120.3482,125.02083 v -0.39274 q -0.093,0.0982 -0.22737,0.1912 -0.12919,0.093 -0.30489,0.17053 -0.1757,0.0724 -0.39274,0.11369 -0.21188,0.0465 -0.47543,0.0465 -0.41858,0 -0.78031,-0.11369 -0.36174,-0.11369 -0.63045,-0.34106 -0.26872,-0.22738 -0.42375,-0.55811 -0.15503,-0.3359 -0.15503,-0.78031 0,-0.46509 0.18604,-0.80099 0.18603,-0.34106 0.48575,-0.5581 0.30489,-0.22221 0.6873,-0.32556 0.38757,-0.10336 0.79065,-0.10336 0.38757,0 0.6873,0.0724 0.30489,0.0672 0.55293,0.18603 v -0.27905 q 0,-0.44442 -0.25321,-0.65112 -0.25321,-0.20671 -0.72347,-0.20671 -0.48059,0 -0.88367,0.13953 -0.40307,0.13953 -0.78548,0.40308 l -0.42375,-1.11105 q 0.19121,-0.12919 0.42892,-0.24288 0.24288,-0.11885 0.52193,-0.2067 0.27905,-0.0879 0.59428,-0.13436 0.32039,-0.0517 0.66663,-0.0517 0.24287,0 0.50126,0.0258 0.25838,0.0258 0.50126,0.10335 0.24805,0.0775 0.46509,0.22221 0.2222,0.1447 0.38757,0.37724 0.16536,0.22738 0.25838,0.56327 0.0982,0.33073 0.0982,0.79065 v 3.45199 z m -1.13688,-1.08004 q 0.37724,0 0.65629,-0.12919 0.27906,-0.13436 0.48059,-0.31523 v -0.58394 q -0.21187,-0.0775 -0.47542,-0.12402 -0.25838,-0.0517 -0.53227,-0.0517 -0.21187,0 -0.40307,0.0362 -0.18604,0.031 -0.33073,0.10852 -0.13953,0.0724 -0.22221,0.19121 -0.0827,0.11885 -0.0827,0.28422 0,0.26355 0.23254,0.42374 0.23255,0.1602 0.67696,0.1602 z" />
      <path
         id="path1424"
         style="font-style:normal;font-variant:normal;font-weight:bold;font-stretch:normal;font-size:10.58333302px;font-family:Overpass;-inkscape-font-specification:'Overpass, Bold';font-variant-ligatures:normal;font-variant-caps:normal;font-variant-numeric:normal;font-feature-settings:normal;text-align:start;writing-mode:lr-tb;text-anchor:start;fill:#ffffff;stroke-width:0.26458332px"
         d="m 126.53388,125.02083 v -3.17293 q 0,-0.27389 -0.0724,-0.47026 -0.0724,-0.19637 -0.20154,-0.32039 -0.12919,-0.1292 -0.29972,-0.18604 -0.17053,-0.062 -0.37207,-0.062 -0.21187,0 -0.39791,0.0568 -0.18603,0.0517 -0.32556,0.1757 -0.13953,0.11886 -0.22221,0.31523 -0.0775,0.1912 -0.0775,0.47025 v 3.19361 h -1.3746 v -5.41052 h 1.3746 v 0.51159 q 0.24804,-0.30489 0.60978,-0.47025 0.3669,-0.16537 0.83716,-0.16537 0.34623,0 0.68729,0.10336 0.34107,0.10335 0.60978,0.3514 0.26872,0.24804 0.43409,0.65629 0.16536,0.40824 0.16536,1.01802 v 3.40548 z" />
    </g>
  </g>
</svg>
