<?xml version="1.0" encoding="UTF-8" standalone="no"?>
<!-- Created with Inkscape (http://www.inkscape.org/) -->

<svg
   xmlns:dc="http://purl.org/dc/elements/1.1/"
   xmlns:cc="http://creativecommons.org/ns#"
   xmlns:rdf="http://www.w3.org/1999/02/22-rdf-syntax-ns#"
   xmlns:svg="http://www.w3.org/2000/svg"
   xmlns="http://www.w3.org/2000/svg"
   xmlns:sodipodi="http://sodipodi.sourceforge.net/DTD/sodipodi-0.dtd"
   xmlns:inkscape="http://www.inkscape.org/namespaces/inkscape"
   width="603.0509"
   height="783.86823"
   id="svg2"
   version="1.1"
   inkscape:version="0.48.5 r10040"
   sodipodi:docname="New document 1">
  <defs
     id="defs4" />
  <sodipodi:namedview
     id="base"
     pagecolor="#ffffff"
     bordercolor="#666666"
     borderopacity="1.0"
     inkscape:pageopacity="0.0"
     inkscape:pageshadow="2"
     inkscape:zoom="0.7"
     inkscape:cx="263.09685"
     inkscape:cy="304.66081"
     inkscape:document-units="px"
     inkscape:current-layer="layer2"
     showgrid="false"
     fit-margin-top="0"
     fit-margin-left="0"
     fit-margin-right="0"
     fit-margin-bottom="0"
     inkscape:window-width="1680"
     inkscape:window-height="988"
     inkscape:window-x="1672"
     inkscape:window-y="-8"
     inkscape:window-maximized="1" />
  <metadata
     id="metadata7">
    <rdf:RDF>
      <cc:Work
         rdf:about="">
        <dc:format>image/svg+xml</dc:format>
        <dc:type
           rdf:resource="http://purl.org/dc/dcmitype/StillImage" />
        <dc:title></dc:title>
      </cc:Work>
    </rdf:RDF>
  </metadata>
  <g
     inkscape:groupmode="layer"
     id="layer2"
     inkscape:label="Layer"
     transform="translate(-328.30466,40.863197)">
    <path
       style="fill:#000000;stroke:#000000;stroke-width:1px;stroke-linecap:butt;stroke-linejoin:miter;stroke-opacity:1;fill-opacity:1;opacity:0.10000000000000001;"
       d="m 623.01159,79.592413 -42.42641,36.365487 -2.27284,-2.27284 -8.08123,7.07107 4.04061,4.29315 -59.34646,49.49747 6.81853,9.34391 -100.51018,88.13581 80.30713,90.66119 -22.22335,19.69798 -70.71068,-73.74114 -79.80205,70.2056 105.05586,120.71323 -12.62691,11.61676 -39.90102,-43.94164 -8.08122,8.5863 94.95434,109.60155 7.57614,-6.56599 2.02031,-2.52538 -35.86042,-43.43656 12.12183,-11.61676 126.26907,145.46197 13.63706,-11.11168 37.88072,43.94164 14.14214,-10.6066 47.98224,53.53808 45.96194,-39.90103 -187.88837,-214.65741 -8.08122,8.08122 -7.07107,-7.07107 23.23351,-19.69797 34.34519,37.37564 20.70812,-16.16244 62.12438,70.71068 41.92133,-38.3858 26.26397,28.78935 56.56854,-48.48732 -11.11167,-13.63706 28.28427,-27.27412 0,-5.05076 111.62185,-98.48988 -29.7995,-31.31473 -140.91628,122.73354 2.02031,2.52538 -10.6066,9.09137 6.56599,8.5863 -70.2056,63.63961 -19.69798,-1.51523 -50.00255,-56.56854 21.2132,-14.64721 -144.45181,-157.5838 -15.15229,12.62691 -28.28427,-33.84011 0.50508,-19.1929 83.33758,-70.2056 8.5863,10.6066 73.23606,-62.62946 2.52538,2.52538 9.09137,-7.57614 -3.53553,-4.04061 136.87567,-118.692927 3.53553,3.53554 8.5863,-6.566 -4.54569,-5.5558298 12.62691,-9.59645 -33.84011,-35.3553402 -131.82491,113.13708 z"
       id="path2996-1"
       inkscape:connector-curvature="0" />
  </g>
</svg>
